<svg class="sc-gkSfol gjEWWB" viewBox="0 0 2062.61 441.19" xmlns="http://www.w3.org/2000/svg"><defs><linearGradient gradientUnits="userSpaceOnUse" id="logoGradient-globalHeaderLogo" x1="255.63" x2="347.32" y1="273.28" y2="216.24"><stop offset="0" stop-color="#fff"></stop><stop offset="0.36" stop-color="#fff"></stop><stop offset="1" stop-color="#404041"></stop></linearGradient><linearGradient gradientUnits="userSpaceOnUse" id="logoGradient-globalHeaderLogo-2" x1="365.45" x2="420.15" y1="236.47" y2="201.73"><stop offset="0" stop-color="#fff"></stop><stop offset="0" stop-color="#5a5b5d"></stop><stop offset="1" stop-color="#fff"></stop></linearGradient><mask height="471.7" id="globalHeaderLogo-mask" maskUnits="userSpaceOnUse" width="629.58" x="-24.37" y="-13.05"><g data-name="MASK" id="globalHeaderLogo-MASK-2"><path class="cls-1" d="M-24.37-13V458.66H605.21V-13ZM236.55,343.46,191.27,220.83l135.29-51.29,48.49,121.93Zm150.6-56.63-48-120.76,139.54-56.22,6.58,137.67Z" id="globalHeaderLogo-opaque"></path><g id="globalHeaderLogo-Grad"><polygon class="cls-2" points="375.05 291.47 236.55 343.46 191.26 220.82 326.56 169.54 375.05 291.47"></polygon><polygon class="cls-3" points="485.24 247.52 387.15 286.83 339.12 166.07 478.66 109.85 485.24 247.52"></polygon></g></g></mask><linearGradient gradientUnits="userSpaceOnUse" id="logoGradient-globalHeaderLogo-3" x1="205.98" x2="462.73" y1="436.92" y2="-0.92"><stop offset="0" stop-color="#20e2d7"></stop><stop offset="0.75" stop-color="#f6eea7"></stop></linearGradient></defs><g data-name="Layer 2" id="Layer_2"><g data-name="Layer 1" id="Layer_1-2"><g class="cls-4"><path class="cls-5" d="M575.27,117.53c-7.46-16.61-27-20.93-41.84-11.63-42.09,26.46-83.65,53.81-125.46,80.7l-48.33,31.09Q323,125.59,286.39,33.48c-2-5.13-4-10.31-6.14-15.42A28.5,28.5,0,0,0,253.8,0a28.15,28.15,0,0,0-24,13.49c-8.63,13.58-16.33,27.85-24.47,41.72L83.24,263.44Q55.42,310.87,27.61,358.3c-8,13.61-16.52,27-24,40.92-13.53,25.11,13.57,52,38.33,38.25a4.65,4.65,0,0,0,.71-.41,5,5,0,0,0,.54-.35q53.6-34.45,107.17-68.93L353.45,237.15c.05.14.11.28.16.41q20.89,52.56,41.8,105.11,6,15.1,12,30.2c3.18,8,5.87,16.15,13.29,21.42,15.5,11,34.86,3.22,42.42-12.86,4.38-9.29,8.66-18.64,13-28l51.41-110.73q21.5-46.32,43-92.62C575.4,139.6,580.58,129.37,575.27,117.53ZM28.6,382.37l49.32-84.11L204.34,82.69,239,23.6c.69-1.16,1.32-2.38,2.06-3.51,5.63-8.56,18.18-10.37,24.82-1.65,2.06,3.34,4.69,10.3,6.62,15.13q38,95.64,76.06,191.26L191.84,325.62,43.49,421.05l-7.41,4.77a16.22,16.22,0,0,1-8.23,2.33c-10.51,0-18.49-10.61-13-22.34ZM563.19,135.12c-9.88,24.16-22.11,47.61-33.1,71.29L476.27,322.34,457.2,363.4c-3,6.56-7.56,18-12.95,21.17-7.91,4.36-17.23.69-21-7.25-.83-1.76-1.57-3.64-2.29-5.45l-11-27.55q-20.46-51.48-40.94-102.95-2.25-5.69-4.52-11.36c.22-.13.42-.27.64-.41q80.85-52,161.69-104c4.47-2.87,8.9-5.8,13.4-8.61C553.14,108.93,569.33,120.08,563.19,135.12Z" data-name="ICON wTRANSP" id="ICON_wTRANSP"></path></g><path class="cls-1" d="M721.59,119.07c7,0,11.64,3.41,15,11.05l59.9,133.36c6.9,15.78,15.42,22.21,29.41,22.21s22.5-6.43,29.41-22.2l59.89-133.38c3.4-7.63,8-11,15-11,9.35,0,14.71,5.27,14.71,14.45V282h17.41V132.73c0-18.9-12.19-29.74-33.45-29.74-13.81,0-22.64,6.11-28.61,19.81L839.9,259.09c-3.3,6.9-7,9.46-13.71,9.46s-10.4-2.55-13.67-9.39L752.07,122.82C746,109.48,736.49,103,722.92,103c-21.27,0-33.46,10.84-33.46,29.74V282h17.41V133.52C706.87,124.34,712.24,119.07,721.59,119.07Z"></path><path class="cls-1" d="M1048.6,243.64h154L1220,277.45A21.11,21.11,0,0,1,1222,282h21a22.89,22.89,0,0,0-2-4.27L1165.33,132c-10.71-20.87-22-29-40.12-29-21.57,0-30.63,10.51-42.79,34.06L1011.9,277.57c-.77,1.69-1.32,3-1.79,4.4h20.45l1.62-4.64Zm53.91-109.37c5.33-9.83,12.46-14.4,22.43-14.4,9.39,0,17,5.07,21.9,14.65l47.89,93.84H1056.29Z"></path><path class="cls-1" d="M1457.51,111.4c.77-1.7,1.33-3.06,1.8-4.42h-20.72l-1.63,4.65-70.3,142.76c-5.42,10-12.26,14.43-22.19,14.43-9.21,0-16.69-5.07-21.62-14.65l-73.2-142.67a21.07,21.07,0,0,1-1.91-4.52h-21.28a23.63,23.63,0,0,0,2,4.27l75.65,145.43c10.72,20.88,22,29,40.13,29,21.57,0,30.63-10.5,42.78-34.06Z"></path><path class="cls-1" d="M1502.07,259.42c0,15.17,7.46,22.55,22.81,22.55h161.49V265.62H1528.08c-5.63,0-8.86-3.23-8.86-8.86V202.38h166.35V186H1519.22V132.73c0-5.39,3.31-8.6,8.86-8.6h158.29V107H1525.15c-15.53,0-23.08,7.12-23.08,21.75Z"></path><path class="cls-1" d="M1769.86,119.6c6.09,0,10.14,2.13,14.46,7.6l110.21,144.29c7.85,10.22,16.77,14.2,31.84,14.2,18.67,0,30.27-11.39,30.27-29.73V107h-17.41V255.16c0,10-7.8,14.45-15.52,14.45-6.11,0-11.49-2.49-14.75-6.84l-111-145c-8.47-11.29-15.29-14.73-29.18-14.73-19.45,0-31.06,11-31.06,29.47V282h17.41V133.26C1755.15,124.84,1760.79,119.6,1769.86,119.6Z"></path><path class="cls-1" d="M894.1,339.35h-9.61l-25.3,57.9-.12.29h10.77l5.91-13.85H902.6l5.77,13.72,0,.13h11.1l-25.36-58.07Zm4.63,35H879.61l9.52-22.22Z"></path><polygon class="cls-1" points="1024.63 379.03 994.27 339.84 994.21 339.76 984.56 339.76 984.56 397.54 994.89 397.54 994.89 357.12 1026.15 397.46 1026.21 397.54 1034.96 397.54 1034.96 339.76 1024.63 339.76 1024.63 379.03"></polygon><path class="cls-1" d="M1135,339.35h-9.61l-25.3,57.9-.12.29h10.77l5.9-13.85h26.86l5.76,13.72.06.13h11.1l-25.37-58.07Zm4.63,35h-19.12l9.52-22.22Z"></path><polygon class="cls-1" points="1235.98 339.76 1225.49 339.76 1225.49 397.54 1266.14 397.54 1266.14 387.95 1235.98 387.95 1235.98 339.76"></polygon><polygon class="cls-1" points="1343.54 364.9 1327.73 339.86 1327.67 339.76 1315.21 339.76 1338.17 374.77 1338.17 397.54 1348.74 397.54 1348.74 374.53 1371.49 340.08 1371.7 339.76 1359.65 339.76 1343.54 364.9"></polygon><polygon class="cls-1" points="1431.59 349.51 1449.78 349.51 1449.78 397.54 1460.36 397.54 1460.36 349.51 1478.55 349.51 1478.55 339.76 1431.59 339.76 1431.59 349.51"></polygon><rect class="cls-1" height="57.78" width="10.49" x="1545.09" y="339.76"></rect><path class="cls-1" d="M1669.86,381.31l-.14.14c-4.85,4.52-9.27,7.32-16.34,7.32-10.67,0-18.72-8.65-18.72-20.12v-.16c0-11.24,8.22-20,18.72-20,5.75,0,10.66,2.18,15.93,7.07l.15.15,6.75-7.77-.15-.13c-4.65-4.45-11-9-22.59-9-17,0-29.8,12.84-29.8,29.87v.16a29.89,29.89,0,0,0,8.38,21.08,29.07,29.07,0,0,0,21,8.63c9.66,0,16.44-3,23.42-10.22l.14-.15-6.62-6.7Z"></path><path class="cls-1" d="M1764.88,363.86c-10.62-2.52-13.53-4.41-13.53-8.82v-.16c0-3.94,3.67-6.59,9.14-6.59,5.11,0,10.16,1.91,15.45,5.86l.17.12,5.64-7.95-.15-.12a32.16,32.16,0,0,0-20.95-7.26c-11.65,0-19.79,6.92-19.79,16.84V356c0,10.65,6.77,14.31,19.26,17.33,10.87,2.5,12.78,4.76,12.78,8.56V382c0,4.19-4,7-10,7-6.52,0-12.06-2.28-18-7.4l-.16-.14-6.32,7.52.14.14a35.65,35.65,0,0,0,24.07,9.23c12.57,0,20.7-6.8,20.7-17.34v-.16C1783.4,371.87,1778.21,367.1,1764.88,363.86Z"></path><path class="cls-1" d="M2062.61,133.23c0,14.88-11.68,26.56-26.88,26.56-15,0-27-11.68-27-26.56,0-14.56,12-26.24,27-26.24C2050.93,107,2062.61,118.67,2062.61,133.23Zm-47.2,0c0,11.68,8.64,21,20.48,21,11.52,0,20-9.28,20-20.8,0-11.68-8.48-21.12-20.16-21.12S2015.41,121.71,2015.41,133.23ZM2031.57,147h-6.08V120.75a53.14,53.14,0,0,1,10.08-.8c5,0,7.2.8,9.12,1.92a7.28,7.28,0,0,1,2.56,5.76c0,2.88-2.24,5.12-5.44,6.08V134c2.56,1,4,2.88,4.8,6.4.8,4,1.28,5.6,1.92,6.56H2042c-.8-1-1.28-3.36-2.08-6.4-.48-2.88-2.08-4.16-5.44-4.16h-2.88Zm.16-14.88h2.88c3.36,0,6.08-1.12,6.08-3.84,0-2.4-1.76-4-5.6-4a14.56,14.56,0,0,0-3.36.32Z"></path></g></g></svg>